<svg width="11" height="18" viewBox="0 0 11 18" fill="none" xmlns="http://www.w3.org/2000/svg">
<path d="M0.461831 17.5561C0.153943 17.2601 0 16.8834 0 16.426C0 15.9686 0.153943 15.5919 0.461831 15.296L7.01145 9L0.461831 2.70404C0.153943 2.40807 0 2.03139 0 1.57399C0 1.11659 0.153943 0.73991 0.461831 0.443946C0.769719 0.147981 1.16158 0 1.6374 0C2.11323 0 2.50509 0.147981 2.81298 0.443946L10.5382 7.86996C10.7061 8.03139 10.8253 8.20628 10.8959 8.39462C10.9653 8.58296 11 8.78475 11 9C11 9.21525 10.9653 9.41704 10.8959 9.60538C10.8253 9.79372 10.7061 9.96861 10.5382 10.13L2.81298 17.5561C2.50509 17.852 2.11323 18 1.6374 18C1.16158 18 0.769719 17.852 0.461831 17.5561Z" fill="#232323"/>
</svg>
