<svg width="25" height="25" viewBox="0 0 25 25" fill="none" xmlns="http://www.w3.org/2000/svg">
<circle cx="12.5" cy="12.5" r="12.5" fill="#007E46"/>
<path d="M9.87292 14.6896L16.2646 8.29792C16.4632 8.09931 16.716 8 17.0229 8C17.3299 8 17.5826 8.09931 17.7812 8.29792C17.9799 8.49653 18.0792 8.7493 18.0792 9.05625C18.0792 9.36319 17.9799 9.61597 17.7812 9.81458L10.6312 16.9646C10.4146 17.1812 10.1618 17.2896 9.87292 17.2896C9.58403 17.2896 9.33125 17.1812 9.11458 16.9646L6.29792 14.1479C6.09931 13.9493 6 13.6965 6 13.3896C6 13.0826 6.09931 12.8299 6.29792 12.6312C6.49653 12.4326 6.74931 12.3333 7.05625 12.3333C7.36319 12.3333 7.61597 12.4326 7.81458 12.6312L9.87292 14.6896Z" fill="#FDFBF8"/>
</svg>
