<svg width="33" height="33" viewBox="0 0 33 33" fill="none" xmlns="http://www.w3.org/2000/svg">
<circle cx="16.5" cy="16.5" r="16.5" fill="#004397"/>
<path d="M14.2555 16.5118C15.1648 16.5118 16.0369 16.143 16.6799 15.4867C17.3228 14.8303 17.6841 13.94 17.6841 13.0118C17.6841 12.0835 17.3228 11.1933 16.6799 10.5369C16.0369 9.88053 15.1648 9.51178 14.2555 9.51178C13.3462 9.51178 12.4741 9.88053 11.8311 10.5369C11.1881 11.1933 10.8269 12.0835 10.8269 13.0118C10.8269 13.94 11.1881 14.8303 11.8311 15.4867C12.4741 16.143 13.3462 16.5118 14.2555 16.5118ZM23.0174 14.1784C23.0174 14.7973 22.7766 15.3908 22.3479 15.8284C21.9193 16.2659 21.3379 16.5118 20.7317 16.5118C20.1255 16.5118 19.5441 16.2659 19.1154 15.8284C18.6868 15.3908 18.446 14.7973 18.446 14.1784C18.446 13.5596 18.6868 12.9661 19.1154 12.5285C19.5441 12.0909 20.1255 11.8451 20.7317 11.8451C21.3379 11.8451 21.9193 12.0909 22.3479 12.5285C22.7766 12.9661 23.0174 13.5596 23.0174 14.1784ZM14.2555 17.2896C15.774 17.2896 17.1545 17.7624 18.1694 18.4298C18.6776 18.7642 19.1126 19.1586 19.4288 19.5887C19.7389 20.0126 19.9698 20.522 19.9698 21.0672C19.9698 21.6544 19.7031 22.125 19.3115 22.4649C18.942 22.7838 18.4604 22.9907 17.9629 23.133C16.9625 23.4184 15.6391 23.5118 14.2555 23.5118C12.8719 23.5118 11.5484 23.4184 10.5488 23.133C10.0505 22.9907 9.56901 22.7838 9.20025 22.4649C8.8071 22.1258 8.5412 21.6544 8.5412 21.0672C8.5412 20.5212 8.77206 20.0126 9.08215 19.5894C9.39834 19.1586 9.83339 18.7634 10.3416 18.4306C11.3564 17.7617 12.737 17.2896 14.2555 17.2896ZM20.7317 17.2896C21.7374 17.2896 22.6502 17.6287 23.3222 18.107C23.9484 18.5527 24.5412 19.2558 24.5412 20.067C24.5412 20.5236 24.3484 20.9016 24.0551 21.1761C23.7831 21.4312 23.4387 21.5868 23.1073 21.6894C22.4444 21.894 21.5911 21.9562 20.7317 21.9562H20.577C20.6761 21.6856 20.7317 21.3884 20.7317 21.0672C20.7317 20.2972 20.4094 19.6283 20.0383 19.1228C19.6681 18.618 19.1774 18.1739 18.6296 17.8076C19.2803 17.4676 20.0007 17.29 20.7317 17.2896Z" fill="#FDFBF8"/>
</svg>
