<svg width="33" height="33" viewBox="0 0 33 33" fill="none" xmlns="http://www.w3.org/2000/svg">
<circle cx="16.5" cy="16.5" r="16.5" fill="#007E46"/>
<path d="M17.5 9.32C17.2115 9.11228 16.8606 9 16.5 9C16.1394 9 15.7885 9.11228 15.5 9.32L9.66667 13.52C9.45967 13.669 9.29167 13.8623 9.17595 14.0845C9.06024 14.3066 9 14.5516 9 14.8V22.4C9 22.8243 9.17559 23.2313 9.48816 23.5314C9.80072 23.8314 10.2246 24 10.6667 24H13.9167C14.1598 24 14.3929 23.9073 14.5648 23.7423C14.7368 23.5772 14.8333 23.3534 14.8333 23.12V19.2C14.8333 18.7757 15.0089 18.3687 15.3215 18.0686C15.634 17.7686 16.058 17.6 16.5 17.6C16.942 17.6 17.366 17.7686 17.6785 18.0686C17.9911 18.3687 18.1667 18.7757 18.1667 19.2V23.12C18.1667 23.3534 18.2632 23.5772 18.4352 23.7423C18.6071 23.9073 18.8402 24 19.0833 24H22.3333C22.7754 24 23.1993 23.8314 23.5118 23.5314C23.8244 23.2313 24 22.8243 24 22.4V14.8C24 14.5516 23.9398 14.3066 23.824 14.0845C23.7083 13.8623 23.5403 13.669 23.3333 13.52L17.5 9.32Z" fill="#FDFBF8"/>
</svg>
